<?xml version="1.0" standalone="no"?><!DOCTYPE svg PUBLIC "-//W3C//DTD SVG 1.1//EN" "http://www.w3.org/Graphics/SVG/1.1/DTD/svg11.dtd"><svg t="1784269590132" class="icon" viewBox="0 0 1024 1024" version="1.1" xmlns="http://www.w3.org/2000/svg" p-id="1990" xmlns:xlink="http://www.w3.org/1999/xlink" width="200" height="200"><path d="M676.724364 402.478545a28.322909 28.322909 0 0 1 39.866181-0.069818l93.416728 93.44c81.547636 81.547636 81.547636 214.295273 0 295.842909l-18.269091 18.292364a208.570182 208.570182 0 0 1-147.898182 61.207273 208.477091 208.477091 0 0 1-147.921455-61.207273l-93.393454-93.44a28.322909 28.322909 0 0 1 0-39.796364l62.696727-62.743272a28.136727 28.136727 0 0 1 39.749818 39.773091l-42.798545 42.821818 73.518545 73.541818a153.064727 153.064727 0 0 0 216.226909 0l18.269091-18.269091a153.134545 153.134545 0 0 0 0-216.273455l-73.541818-73.518545-41.448727 41.472a28.136727 28.136727 0 0 1-39.773091-39.773091z m-369.803637 331.17091a27.973818 27.973818 0 1 1 54.062546 14.498909l-20.247273 75.636363a28.020364 28.020364 0 0 1-34.257455 19.781818 28.020364 28.020364 0 0 1-19.781818-34.280727z m-59.275636-98.862546a27.997091 27.997091 0 0 1 14.475636 54.062546l-75.636363 20.224a27.997091 27.997091 0 0 1-14.475637-54.062546z m103.261091-283.927273a27.973818 27.973818 0 0 1 39.540363 0l254.487273 254.510546a27.950545 27.950545 0 0 1-19.735273 47.709091c-7.447273 0-14.568727-2.978909-19.781818-8.238546L350.882909 390.4a27.950545 27.950545 0 0 1 0-39.517091zM230.702545 212.48c81.547636-81.617455 214.225455-81.570909 295.749819-0.069818l93.416727 93.416727a28.16 28.16 0 0 1 0 39.842909l-61.300364 61.300364a28.136727 28.136727 0 0 1-39.749818-39.773091l41.425455-41.448727-73.541819-73.518546a153.064727 153.064727 0 0 0-216.226909 0l-18.292363 18.292364a153.134545 153.134545 0 0 0 0 216.250182L325.818182 560.360727l42.821818-42.821818a28.136727 28.136727 0 0 1 39.749818 39.796364l-62.696727 62.696727a28.136727 28.136727 0 0 1-39.819636 0l-93.416728-93.416727c-81.547636-81.570909-81.547636-214.318545 0-295.866182z m578.583273 74.24a27.997091 27.997091 0 0 1 14.475637 54.062545l-75.636364 20.224a27.997091 27.997091 0 0 1-14.475636-54.062545zM655.034182 171.985455a28.020364 28.020364 0 0 1 34.280727-19.781819c14.917818 4.026182 23.738182 19.316364 19.781818 34.257455l-20.247272 75.636364a27.973818 27.973818 0 1 1-54.039273-14.475637z" fill="#444444" p-id="1991"></path></svg>